<?xml version="1.0" encoding="UTF-8" standalone="no"?><svg xmlns="http://www.w3.org/2000/svg" xmlns:xlink="http://www.w3.org/1999/xlink" contentScriptType="application/ecmascript" contentStyleType="text/css" height="447px" preserveAspectRatio="none" style="width:767px;height:447px;" version="1.1" viewBox="0 0 767 447" width="767px" zoomAndPan="magnify"><defs/><g><!--MD5=[ed1d20ea533a2a0e7df5ba3c35e56ced]
cluster Controllers--><path d="M309,24 L383,24 A4.5,4.5 0 0 1 386,27 L393,44.4844 L445,44.4844 A3,3 0 0 1 448,47.4844 L448,97 A3,3 0 0 1 445,100 L309,100 A3,3 0 0 1 306,97 L306,27 A3,3 0 0 1 309,24 " fill="#FFFFFF" style="stroke: #000000; stroke-width: 1.5;"/><line style="stroke: #000000; stroke-width: 1.5;" x1="306" x2="393" y1="44.4844" y2="44.4844"/><text fill="#000000" font-family="Tahoma, sans-serif" font-size="12" font-weight="bold" lengthAdjust="spacingAndGlyphs" textLength="74" x="310" y="38.0059">Controllers</text><!--MD5=[e69828dec1dbb2627e683807b1b11ce9]
cluster Frameworks--><path d="M25,291 L104,291 A4.5,4.5 0 0 1 107,294 L114,311.4844 L465,311.4844 A3,3 0 0 1 468,314.4844 L468,432 A3,3 0 0 1 465,435 L25,435 A3,3 0 0 1 22,432 L22,294 A3,3 0 0 1 25,291 " fill="#FFFFFF" style="stroke: #000000; stroke-width: 1.5;"/><line style="stroke: #000000; stroke-width: 1.5;" x1="22" x2="114" y1="311.4844" y2="311.4844"/><text fill="#000000" font-family="Tahoma, sans-serif" font-size="12" font-weight="bold" lengthAdjust="spacingAndGlyphs" textLength="79" x="26" y="305.0059">Frameworks</text><!--MD5=[975d7fda8cf98ff1a26ca528bf10cecf]
cluster App--><path d="M495,292 L519,292 A4.5,4.5 0 0 1 522,295 L529,312.4844 L752,312.4844 A3,3 0 0 1 755,315.4844 L755,371 A3,3 0 0 1 752,374 L495,374 A3,3 0 0 1 492,371 L492,295 A3,3 0 0 1 495,292 " fill="#FFFFFF" style="stroke: #000000; stroke-width: 1.5;"/><line style="stroke: #000000; stroke-width: 1.5;" x1="492" x2="529" y1="312.4844" y2="312.4844"/><text fill="#000000" font-family="Tahoma, sans-serif" font-size="12" font-weight="bold" lengthAdjust="spacingAndGlyphs" textLength="24" x="496" y="306.0059">App</text><!--MD5=[6aa65ed65fe367edb52904ae892f9489]
cluster Use cases--><path d="M311,158 L380,158 A4.5,4.5 0 0 1 383,161 L390,178.4844 L443,178.4844 A3,3 0 0 1 446,181.4844 L446,230 A3,3 0 0 1 443,233 L311,233 A3,3 0 0 1 308,230 L308,161 A3,3 0 0 1 311,158 " fill="#FFFFFF" style="stroke: #000000; stroke-width: 1.5;"/><line style="stroke: #000000; stroke-width: 1.5;" x1="308" x2="390" y1="178.4844" y2="178.4844"/><text fill="#000000" font-family="Tahoma, sans-serif" font-size="12" font-weight="bold" lengthAdjust="spacingAndGlyphs" textLength="69" x="312" y="172.0059">Use cases</text><ellipse cx="376.9148" cy="70.283" fill="#F8F8F8" rx="54.4148" ry="13.283" style="stroke: #383838; stroke-width: 0.5;"/><text fill="#000000" font-family="Tahoma, sans-serif" font-size="12" font-weight="bold" lengthAdjust="spacingAndGlyphs" textLength="73" x="340.4148" y="74.0251">controllers</text><ellipse cx="97.9845" cy="341.3969" fill="#F8F8F8" rx="59.9845" ry="14.3969" style="stroke: #383838; stroke-width: 0.5;"/><text fill="#000000" font-family="Tahoma, sans-serif" font-size="12" lengthAdjust="spacingAndGlyphs" textLength="88" x="53.9845" y="345.1391">downloadFonts</text><ellipse cx="230.0993" cy="341.3199" fill="#F8F8F8" rx="59.5993" ry="14.3199" style="stroke: #383838; stroke-width: 0.5;"/><text fill="#000000" font-family="Tahoma, sans-serif" font-size="12" lengthAdjust="spacingAndGlyphs" textLength="87" x="186.5993" y="345.062">generateSasUrl</text><ellipse cx="98.8714" cy="404.4743" fill="#F8F8F8" rx="60.3714" ry="14.4743" style="stroke: #383838; stroke-width: 0.5;"/><text fill="#000000" font-family="Tahoma, sans-serif" font-size="12" lengthAdjust="spacingAndGlyphs" textLength="89" x="54.3714" y="408.2165">streamToBuffer</text><ellipse cx="377.2321" cy="341.4464" fill="#F8F8F8" rx="75.2321" ry="17.4464" style="stroke: #383838; stroke-width: 0.5;"/><text fill="#000000" font-family="Tahoma, sans-serif" font-size="12" lengthAdjust="spacingAndGlyphs" textLength="125" x="314.7321" y="345.1886">uploadBlobToStorage</text><ellipse cx="579.0295" cy="341.5059" fill="#F8F8F8" rx="70.5295" ry="16.5059" style="stroke: #383838; stroke-width: 0.5;"/><text fill="#000000" font-family="Tahoma, sans-serif" font-size="12" lengthAdjust="spacingAndGlyphs" textLength="114" x="522.0295" y="345.2481">createPdfDocument</text><ellipse cx="699.8553" cy="341.742" fill="#F8F8F8" rx="38.3553" ry="13.242" style="stroke: #383838; stroke-width: 0.5;"/><text fill="#000000" font-family="Tahoma, sans-serif" font-size="12" lengthAdjust="spacingAndGlyphs" textLength="50" x="674.8553" y="345.4842">template</text><ellipse cx="376.9975" cy="204.242" fill="#F8F8F8" rx="52.4975" ry="13.242" style="stroke: #383838; stroke-width: 0.5;"/><text fill="#000000" font-family="Tahoma, sans-serif" font-size="12" lengthAdjust="spacingAndGlyphs" textLength="70" x="341.9975" y="207.9842">GeneratePdf</text><!--MD5=[9f98d7aa3dcab5363e9a17013145fc9f]
link <b>controllers</b> to GeneratePdf--><path d="M377,84.109 C377,107.733 377,158.696 377,185.581 " fill="none" id="&lt;b&gt;controllers&lt;/b&gt;-&gt;GeneratePdf" style="stroke: #000000; stroke-width: 1.0;"/><polygon fill="#000000" points="377,190.621,381,181.621,377,185.621,373,181.621,377,190.621" style="stroke: #000000; stroke-width: 1.0;"/><!--MD5=[d730a6a0b5875ead51fae1a19f317db5]
link downloadFonts to streamToBuffer--><path d="M98.2219,356.0379 C98.3605,364.4882 98.5407,375.4855 98.6929,384.7662 " fill="none" id="downloadFonts-&gt;streamToBuffer" style="stroke: #000000; stroke-width: 0.5; stroke-dasharray: 7.0,7.0;"/><polygon fill="#000000" points="98.7787,390,102.6303,380.9355,98.6966,385.0007,94.6314,381.0669,98.7787,390" style="stroke: #000000; stroke-width: 0.5;"/><!--MD5=[947178eebad13798b88e69c98d9d5eca]
link GeneratePdf to createPdfDocument--><path d="M393.875,216.32 C429.077,239.933 510.562,294.592 552.702,322.86 " fill="none" id="GeneratePdf-&gt;createPdfDocument" style="stroke: #000000; stroke-width: 0.5;"/><polygon fill="#000000" points="556.901,325.676,551.6564,317.3397,552.7491,322.89,547.1988,323.9827,556.901,325.676" style="stroke: #000000; stroke-width: 0.5;"/><!--MD5=[8ecdbeb0a0e8a7513206eea1eac3c886]
link GeneratePdf to downloadFonts--><path d="M341.703,213.651 C297.975,225.306 222.14,248.633 164,283 C145.268,294.073 126.843,310.748 114.241,323.294 " fill="none" id="GeneratePdf-&gt;downloadFonts" style="stroke: #000000; stroke-width: 0.5;"/><polygon fill="#000000" points="110.524,327.044,119.7006,323.4676,114.0438,323.4928,114.0186,317.836,110.524,327.044" style="stroke: #000000; stroke-width: 0.5;"/><!--MD5=[e4fa2489f8479b0a087fa34353b01a37]
link GeneratePdf to generateSasUrl--><path d="M364.212,216.788 C338.14,240.82 278.757,295.557 248.485,323.461 " fill="none" id="GeneratePdf-&gt;generateSasUrl" style="stroke: #000000; stroke-width: 0.5;"/><polygon fill="#000000" points="244.589,327.052,253.9167,323.8908,248.2645,323.6622,248.4931,318.01,244.589,327.052" style="stroke: #000000; stroke-width: 0.5;"/><!--MD5=[fd1ea561ba53885947c6ce30d3f1833d]
link GeneratePdf to template--><path d="M425.295,209.141 C484.222,216.18 584.782,234.785 656,283 C671.389,293.418 683.678,310.981 691.316,323.961 " fill="none" id="GeneratePdf-&gt;template" style="stroke: #000000; stroke-width: 0.5;"/><polygon fill="#000000" points="693.916,328.514,692.9251,318.7151,691.4359,324.1724,685.9786,322.6832,693.916,328.514" style="stroke: #000000; stroke-width: 0.5;"/><!--MD5=[7a8ce6e4c765aebfab726a32135377fa]
link GeneratePdf to uploadBlobToStorage--><path d="M377,217.025 C377,239.829 377,289.66 377,318.562 " fill="none" id="GeneratePdf-&gt;uploadBlobToStorage" style="stroke: #000000; stroke-width: 0.5;"/><polygon fill="#000000" points="377,323.704,381,314.704,377,318.704,373,314.704,377,323.704" style="stroke: #000000; stroke-width: 0.5;"/><script type="text/plantuml"><![CDATA[MD5=[ce393519927a1e57e65983ca19ef778b]
@startuml

scale max 1920 width
top to bottom direction

skinparam nodesep 12
skinparam ranksep 24
skinparam monochrome true
skinparam shadowing false
skinparam defaultFontName Tahoma
skinparam defaultFontSize 12
skinparam roundCorner 6
skinparam dpi 150
skinparam arrowColor black
skinparam arrowThickness 0.5
skinparam packageTitleAlignment left

skinparam usecase {
  borderThickness 0.5
}

skinparam rectangle {
  borderThickness 0.5
}

skinparam component {
  borderThickness 1
}


package "Controllers" {
  (<b>controllers</b>)
}

package "Frameworks" {
  (downloadFonts)
  (generateSasUrl)
  (streamToBuffer)
  (uploadBlobToStorage)
}

package "App" {
  (createPdfDocument)
  (template)
}

package "Use cases" {
  (GeneratePdf)
}


(<b>controllers</b>) ----[thickness=1]> (GeneratePdf)
(downloadFonts) ..> (streamToBuffer)
(GeneratePdf) ----> (createPdfDocument)
(GeneratePdf) ----> (downloadFonts)
(GeneratePdf) ----> (generateSasUrl)
(GeneratePdf) ----> (template)
(GeneratePdf) ----> (uploadBlobToStorage)

@enduml


' View and edit on https://arkit.pro
]]></script></g></svg>